<svg width="160" height="36" fill="none" xmlns="http://www.w3.org/2000/svg"><path fill-rule="evenodd" clip-rule="evenodd" d="M26.369 4.955h.757v-.763h.264L27.465 0c-.06 0-.134.03-.21.508a8.27 8.27 0 01-.473 1.805c-.279.708-.598 1.216-.787 1.575-.324.608-.324.942-.324.942l.588 4.552s.394.229 1.211.229h.065c.813 0 1.211-.23 1.211-.23l.588-4.55s0-.335-.323-.943c-.19-.359-.509-.867-.788-1.575a8.88 8.88 0 01-.474-1.805C27.68.03 27.605 0 27.545 0l.075 4.192h.264v.758h.758v.758h-.758v.757h-.758v-.757h-.758v-.753zM5.252 7.353c-.274-.07-.419-.274.09-.344.439-.06.897-.03 1.316-.04 2.762-.165 5.967-.459 8.474-1.002 1.894-.454 4.352-1.6 6.167-1.675 2.85-.11 3.26 2.547 1.72 4.152-.145.155-.49.38-.54.499-.124.299.096.613.26.723.25.17.598.164.902.164.624 0 1.217.055 1.84.1-.125 1.052-.917 2.233-1.446 2.94-.224.3-.598.774-1.052 1.148-.483.403-1.161.637-2.043.284 1.076-.768 1.814-1.526 2.656-2.707.055-.08.693-.907.698-.922-.16.01-.717.703-.822.827-1.017 1.221-1.76 1.94-3.036 2.747-.578.1-1.475-.11-1.959-.434.07-.035.135-.065.204-.1.738-.368 1.406-.707 2.094-1.171.115-.08.23-.16.34-.24.602-.458 1.17-.951 1.759-1.43.025-.02.339-.24.339-.26-.05-.04-.37.155-.4.175-.632.404-1.225.883-1.843 1.316-.808.549-1.556.902-2.428 1.326-.165.075-.324.15-.489.215-.737.224-1.74.034-2.477-.42 1.077-.278 1.984-.652 3.32-1.23.06-.025.12-.055.18-.08.991-.489 1.874-1.097 2.856-1.585.035-.015.388-.135.388-.135-.04-.06-.383.035-.423.05-1.037.374-2.044 1.057-3.1 1.51-1.466.588-2.424.957-3.65 1.232-1.022.024-1.844-.41-2.408-.878.19-.02.384-.05.579-.08 1.396-.234 2.567-.498 3.913-.927.294-.1.573-.204.862-.324.927-.398 2.039-.977 3.001-1.226.05-.01.543-.07.553-.08-.04-.075-.503-.035-.573-.025-1.131.17-2.742 1.002-3.923 1.386a29.485 29.485 0 01-3.883.857c-.389.06-.763.095-1.152.13l-.06.005c-.717-.045-1.535-.329-2.068-.807l.104-.005c2.667-.195 4.636-.569 7.189-1.331.15-.045.299-.095.448-.15 1.067-.379 2.358-.922 3.455-1.136.02-.01.284-.035.319-.03.02 0 .194.025.2.02.004-.04-.17-.08-.19-.085a1.286 1.286 0 00-.34-.005c-1.14.1-2.82.782-3.962 1.121-2.373.653-4.272 1.012-6.73 1.212-.289.02-.573.04-.862.055-.528-.13-1.077-.464-1.366-.918.469-.03.937-.06 1.406-.094a51.3 51.3 0 004.446-.544 44.113 44.113 0 003.764-.842 38.548 38.548 0 001.874-.539c.384-.124.758-.254 1.147-.363a5.42 5.42 0 01.628-.135c.035-.005.528-.01.528-.01-.025-.085-.473-.09-.533-.09-.225.01-.434.045-.653.09-.399.09-.778.21-1.172.314-1.899.504-3.693.927-5.637 1.251a53.84 53.84 0 01-3.993.479c-.698.06-1.401.11-2.104.154-.573-.08-1.167-.339-1.426-.762a69.75 69.75 0 002.697-.135 50.51 50.51 0 004.417-.503c1.505-.255 2.861-.584 4.327-.987.458-.125.917-.265 1.37-.384.524-.15 1.017-.324 1.55-.439a4.2 4.2 0 01.788-.095c.095.005.683.13.708.12-.03-.125-.598-.22-.703-.234a3.48 3.48 0 00-.822.05c-.543.094-1.042.249-1.575.383-1.94.484-3.71.933-5.693 1.257a54.697 54.697 0 01-3.933.448 84.49 84.49 0 01-3.375.19 1.288 1.288 0 01-.803-.678c1.81-.035 3.59-.11 5.419-.284a45.647 45.647 0 004.99-.818c1.286-.304 2.532-.748 3.808-1.097.514-.134.997-.244 1.526-.304.344-.03.643-.03.977.065.16.05.279.105.409.214a.792.792 0 01.259.39.9.9 0 01.015.488c-.01.05-.155.488-.15.498.06-.015.22-.423.24-.473.06-.2.07-.35.02-.549a.95.95 0 00-.285-.473c-.144-.13-.279-.2-.458-.264-.36-.115-.678-.13-1.052-.11-1.775.164-3.624.897-5.384 1.301a49.55 49.55 0 01-4.516.738c-2.044.22-4.028.309-6.047.364z" fill="#fff"/><path fill-rule="evenodd" clip-rule="evenodd" d="M26.318 10.11c.025 1.784.05 3.414.07 4.915a28.146 28.146 0 00-6.53 1.011c.064.494.478 1.536.647 2.792.529 3.983-1.36 5.748-1.076 9.177.359 4.357 4.501 4.008 5.992 4.521.812.28 1.141.494 1.43.743.15.917.514 2.288.693 2.238.18-.05.479-1.346.598-2.238.085-.07.19-.14.314-.224 2.119-1.356 6.695-.19 7.129-5.04.19-2.148-.603-4.008-1.002-5.907-.633-3.02.538-5.354.533-6.101-1.216-.19-2.323-.524-3.664-.713a29.66 29.66 0 00-2.826-.255c.04-2.263.06-3.963.07-4.925 0-.024 0-.05-.005-.074-.648.204-1.72.204-2.358-.015-.015.025-.02.06-.015.094zm.085 5.832c.054 0 .114-.005.17-.005h.034c.055 0 .11-.005.164-.005h.04c.39-.01.778-.01 1.172-.005h.035c.06 0 .114 0 .174.005h.035c.06 0 .115.005.174.005h.035c.055 0 .11.005.17.005 1.794.07 3.594.314 5.389.747-.235 1.865-.843 2.922-.334 5.519.493 2.517 2.686 7.522-1.441 8.838-.852.27-1.715.289-2.582.513-.758.195-1.122.394-1.43.584l-.01.005-.01.005-.006.005-.005.005-.01.005-.01.005-.01.005-.01.004-.01.005-.01.005-.005.005-.005.005-.02.01-.01.005-.03.02-.004.005h-.005l-.01.005-.01.005-.01.005-.04.025h-.005l-.02.015-.05.03-.075.045c-.025.015-.05.03-.08.045-.024.015-.054.03-.08.045-.05.024-.099.05-.149.07-.06-.025-.11-.055-.16-.08l-.024-.015-.03-.015-.055-.03h-.005a.436.436 0 00-.05-.03l-.025-.015-.02-.01-.005-.005-.025-.015-.005-.005-.02-.01h-.005l-.02-.015-.02-.015-.01-.005-.01-.005h-.004l-.025-.015-.005-.005-.01-.005-.005-.005h-.005l-.01-.005-.01-.005-.01-.005-.02-.015-.01-.005-.01-.005-.01-.005-.01-.005-.005-.005-.005-.005-.01-.005-.005-.005-.005-.005-.01-.004-.01-.005-.01-.005-.01-.005-.01-.005-.01-.005h-.005l-.014-.01h-.005l-.006-.005c-.274-.17-.618-.34-1.38-.544-1.72-.458-5.085-.16-5.045-4.217.03-3 1.47-4.407 1.157-8.09-.08-.948-.38-1.78-.46-2.558a27.104 27.104 0 015.375-.762z" fill="#fff"/><path d="M27.126 23.549l-1.96-3.48c-.144 1.027-.523 1.875-.902 2.732-.453 1.012-.907 2.029-.962 3.365h.937v.802h-2.642l.02-.802h.738c.06-1.615.583-2.802 1.117-4.008.513-1.167 1.037-2.353 1.131-3.958h-1.256l.06-.803h1.974l2.119 3.759 1.909-3.744 1.934-.015v.803H30.15c.19 1.38.733 2.477 1.287 3.589.633 1.276 1.28 2.582 1.445 4.377h.773v.802h-3.13v-.802h.971c-.269-1.78-.887-2.971-1.425-4.008-.404-.773-.758-1.456-.893-2.228l-1.929 3.843-.124-.224z" fill="#fff"/><path d="M25.5 30.119v-.364h.454v-4.357h-.439v-.439h1.665v.439h-.468v1.77c.2-.255.538-.559.877-.853.394-.354.783-.698.897-.912h-.364v-.439h1.436v.439h-.439c-.214.489-.692.912-1.061 1.241-.14.125-.264.24-.35.33.444.199.808.578 1.088 1.031.334.549.543 1.201.598 1.755h.468v.438h-1.734v-.438h.473c-.07-.464-.22-1.002-.503-1.46-.22-.355-.519-.654-.923-.828a2.519 2.519 0 00-.454.533v1.75h.47v.439h-1.68v-.075h-.01z" fill="#fff"/><path fill-rule="evenodd" clip-rule="evenodd" d="M9.728 16.55c.848.359 1.98.359 2.837.19.05-.016.095-.026.144-.04.065-.02.125-.046.19-.07.02-.01.124-.055.134-.07.07-.05.11-.1.145-.185l.015-.04a6.246 6.246 0 00-1.102-.1c-.144 0-.289 0-.438.01-.19.01-.38.02-.569.04-.409.04-.767.1-1.166.205-.065.025-.13.045-.19.06zm5.608 12.233c.215-.065.235-.005.414-.015.214-.015.185-.1.404-.03.14.045.04.02.21.095.084.025.154.05.224.074.114.035.224.005.324.065.1.06.284.065.314.15.11.164-.245.319-.334.393-.245.2-.255.374-.28.574-.024.22-.03.643 0 .638.05-.005.29-.623.444-.798.195-.22.399-.22.887-.15.155.016.46.15.564.265.194.214.299.429.364.658.065.23.204.543.289.548.114.01.309-1.316-.529-1.884-.922-.359-1.051-.733-1.8-1.281-.189-.07-.184-.1-.378-.14.025-.299.005-.448-.04-.553.334-.294.678-.593.962-.892.14-.15.224-.28.389-.469.798-.907 1.286-2.308 1.386-3.5.045-.533-.01-.996.005-1.505.12.11.134.16.279.18.1-.32-.145-1.212-.264-1.53a4.816 4.816 0 00-.618-1.162l.384.04c-.125-.753-1.172-2.124-1.606-2.413l.36-.04c-.006-.269-.415-.548-.589-.708a3.655 3.655 0 00-.773-.513c-.727-.384-2.173-.818-3.05-.274-.235.144-.37.274-.43.393l-.014.105c-.005.065-.01.12.005.185.01.04.02.065.04.094.055.075.134.13.21.19l.084.07c.025.02.145.134.155.154.08.1.114.17.13.3a.818.818 0 01-.04.378.682.682 0 01-.23.324c-.125.095-.25.14-.394.195l-.08.03c.304.603.903.862.828 1.799-.03.409-.27.847-.534 1.226a15.56 15.56 0 011.775-.214c.553-.03 1.082-.035 1.635-.03.07.045-.124.07-.13.07-.468.065-.932.13-1.4.19-.025.004-.055.004-.075.01-.643.094-1.266.209-1.9.348-.079.02-.164.035-.244.055a14.194 14.194 0 00-5.573 3.295c-.643.618-.01.658.589.783-.753.593-1.117.742-1.96 1.535-.229.234-1.031.937-1.385 1.45-.489.703.408.599.967.654-1.41 1.21-2.607 1.79-4.262 2.741-.414.235-1.556.833-.783 1.331.843.543 3.235.354 4.337-.075 1.904-.747 2.218-1.47 2.652-1.774-.095.294-1.107 1.48-.399 1.5.663.02 1.326-.364 1.74-.658.483-.349.718-.812 1.141-1.181-.08.224-.423.817-.015.832.798.025 1.461-.837 1.9-1.156.005 0 .01.005.015.005.015-.005.035 0 .064 0 .08.01.24.03.43.065.183.035.398.09.607.12.21.03.414.024.598.079l.055.015-.03-.07c.225.045.15.1.32.175.07.045.244.09.388.064.05.185.26.479.39.619.069.06.104.1.184.164.074.065.184.15.259.244.07.095.124.225.12.314-.006.09-.06.145-.18.17-.12.03-.294.03-.509.05a4.28 4.28 0 00-.648.104c-.189.05-.324.12-.448.185l-.025.015c-.05.045-.11.094-.17.15-.01.024-.329.368-.339.398.055.075 1.117-.384 1.172-.304.733-.07.777.08 1.51.005l1.79.13 1.181.319c.015-.015.015-.025.015-.045 0-.005-1.226-.818-1.52-.833-.957-.04-.977-.927-1.63-1.57-.15-.145-.31-.314-.37-.468.444-.688.235-.464.42-1.037.04-.01.08-.025.07-.035zM7.95 25.009c-.439.274-.828.618-1.241.922a8.455 8.455 0 00-.903.723c-.154.14-.294.28-.413.439-.05.07-.09.13-.12.204a.245.245 0 00-.02.105c0 .04.005.075.025.11s.04.06.07.09c.03.024.06.04.094.054.075.03.145.045.225.06.184.025.359.025.543.02.294-.01.558-.04.852-.075a7.325 7.325 0 001.186-.25c-.054.056-.104.11-.149.165a.401.401 0 00-.064.12.179.179 0 000 .125.24.24 0 00.08.11c.034.03.07.044.114.064.184.065.389.065.588.06.369-.015.693-.06 1.052-.115.2-.04.399-.08.598-.13.638-.164 1.067-.328 1.56-.707a7.44 7.44 0 00.698-.673c.065-.07.912-.818.594-.703-.45.18-.873.578-1.217.867-.115.095-.23.185-.349.27-.633.438-1.171.588-1.974.762-.279.06-.608.105-.892.13-.03 0-.06.005-.085.005-.12.005-.314.015-.429-.02-.004 0-.014-.01-.014-.005.005.005.01.01.01.02v.005a.108.108 0 01.024-.04 6 6 0 01.614-.633c.09-.055.179-.115.274-.18a7.27 7.27 0 00.777-.693c.045-.04.499-.413.658-.603l.1-.1s.165-.139.075-.119l-.17.11a.07.07 0 00-.03.01c-.448.164-.902.563-1.26.847-.13.1-.265.2-.404.294-.673.439-1.217.564-2.04.708a7.243 7.243 0 01-.807.09c-.16.01-.319.01-.478-.005a.592.592 0 01-.155-.04l.005.01c0 .005 0 .005 0 0 0-.01.005-.025.005-.035.015-.05.045-.1.08-.145.104-.15.23-.284.364-.413a12.035 12.035 0 01.837-.743c.364-.304.663-.633 1.017-.927.05-.055.17-.16.095-.145zm2.98-3.275c-.558.26-1.176.638-1.7.962-.154.1-.303.2-.453.304-.154.11-.299.22-.438.34a1.94 1.94 0 00-.28.293.588.588 0 00-.08.145.31.31 0 00-.014.164c.01.04.02.07.045.1.025.03.044.05.074.07.06.045.115.065.185.09.154.05.299.07.458.084.255.02.484.02.738.025.185-.005.36-.02.539-.045.299-.044.578-.104.862-.184-.08.075-.155.14-.224.23a.463.463 0 00-.1.204.248.248 0 00.01.134c.02.05.045.085.085.12a.78.78 0 00.334.13c.14.024.269.034.403.04.205.004.394-.006.594-.016.17-.014.334-.044.503-.08.294-.064.568-.144.842-.244a1.02 1.02 0 00-.13.185.42.42 0 00-.039.1.245.245 0 000 .12c.015.049.04.084.09.114.045.03.085.04.14.045.563.064 1.011.045 1.555-.125.782-.26 1.355-.543 1.889-1.156.035-.045.668-.753.404-.628-.28.144-.643.513-.908.722-.508.374-.907.549-1.505.768a3.189 3.189 0 01-1.406.154c-.01 0-.025-.005-.015 0 .015.01.02.02.025.035v.005l.015-.044c.045-.095.115-.175.185-.255.1-.114.204-.229.304-.339.07-.054.134-.114.219-.2.19-.188.394-.368.588-.557 0 0 .005-.005.01-.005.03-.03.588-.504.548-.584.01-.014.005-.024-.014-.024l-.02.014h-.01c-.25.055-.479.255-.678.404l-.419.33c-.075.059-.15.124-.224.189a1.26 1.26 0 01-.429.289 6.577 6.577 0 01-1.56.448 4.12 4.12 0 01-.554.03h-.094c-.09-.005-.18-.01-.27-.02-.06-.01-.154-.024-.204-.06 0 0 .005.006.005.01v.01c.005-.024.03-.064.045-.09.065-.089.135-.154.214-.233.135-.13.27-.26.41-.384.129-.065.223-.14.368-.27a36.5 36.5 0 01.683-.593c.035-.03.638-.448.633-.543.015-.02.015-.035-.01-.03l-.02.015h-.02c-.274.045-.508.21-.738.354-.17.115-.334.234-.498.359-.08.06-.16.124-.244.19-.19.149-.26.199-.484.283a6.926 6.926 0 01-1.71.364c-.23.015-.468.015-.698 0h-.015a1.93 1.93 0 01-.378-.06.472.472 0 01-.105-.044l-.01-.01.005.01c0 .005 0-.005.005-.015a.252.252 0 01.045-.08 1.53 1.53 0 01.229-.254c.264-.245.543-.449.838-.658.12-.085.234-.165.353-.245.394-.264.808-.528 1.187-.812.01-.02.085-.08.035-.095zm1.726-6.625c-.509.025-1.272.11-1.955.31-.742.214-1.39.567-1.505 1.116a8.09 8.09 0 01.658-.234c.24-.07.464-.125.713-.17a8.85 8.85 0 011.515-.145c.409 0 .728.03 1.122.11a.339.339 0 00-.06-.14 1.897 1.897 0 00-.194-.204c-.095-.085-.17-.144-.24-.254a.457.457 0 01-.064-.18.971.971 0 01.01-.209zm.922-.05c.304-.17.663-.084 1.056.015-.239.264-.463.459-.862.459-.14-.08-.244-.224-.194-.474zm33.193 9.701v.015a2.374 2.374 0 01-.997 1.41c-.03-.04-.07-.07-.105-.104-.04-.04-.075-.075-.12-.11a.247.247 0 00-.09-.04.039.039 0 00-.039.01.395.395 0 00.02.17c.025.065.06.14.095.2.005.004.01.014.015.02-.608.338-1.361.488-2.104.438h-.02c-.309-.005-.598-.06-.872-.09-2.732-.319-2.547 2.562-.439 2.552 1.147-.005 1.66-1.236 1.4-2.193.798.04 1.606-.14 2.249-.528.608-.37 1.077-.923 1.256-1.665.005-.01.005-.02.005-.03.175.03.374.06.504.11.2.08.413.209.688.463.269.254.613.638.942 1.261.932 1.77.752 2.338 2.233 3.903.488.519 2.113 1.027 2.378.04.05-.174.02-.523-.205-.708-.11-.09-.732-.528-.638-.663.12-.174 2.02-.07 2.014 1.56-.005 1.162-.952 1.91-2.133 1.91-3.39.01-4.766-2.144-6.062-4.123v.005c-.14-.174-.294-.369-.459-.533-.17-.17-.528-.538-.568-.488-.03-.01.678.887.917 1.455a4.886 4.886 0 01-.807 1.61c-.02-.02-.04-.045-.06-.065-.065-.07-.125-.12-.194-.18-.06-.049-.13-.084-.195-.124-.02-.01-.04-.01-.055.005 0 0 0 .005-.005.005.05.11.095.22.145.33.04.084.07.164.105.248l.03.06a4.399 4.399 0 01-1.217.947.953.953 0 00-.184-.214.24.24 0 00-.13-.045c-.015 0-.03.01-.045.02l-.005.005a.6.6 0 00.04.21c.015.05.035.104.055.16a5.55 5.55 0 01-1.755.458.85.85 0 00-.044-.15.186.186 0 00-.095-.1c-.01-.005-.035 0-.045.005h-.005c-.04.05-.055.155-.06.215 0 .015-.005.03-.005.05-.04 0-.08.005-.12.005-2.307.094-5.388-1.466-5.543-4.332-.13-2.403 1.112-3.694 3.206-4.217.558-.095 1.111-.17 1.68-.23.024-.005.054-.005.08-.005l1.405-.134c.005 0 .2-.02.135-.065a29.818 29.818 0 00-1.636-.04 16.24 16.24 0 00-.697.03c-.424.03-.838.08-1.257.134-.274.04-.553.08-.822.125-2.124-.668-3.455-2.831-2.871-5.329.583-2.507 2.826-3.818 5.563-3.793.269 0 .508.07.723.18.234.094.428.234.603.383.244.21.448.439.638.608.19.175.354.29.523.389.17.095.344.174.439.23.095.054.114.089.154.189.04.1.095.264.095.433 0 .095-.02.195-.045.294.235.025.449.08.613.245.045.045.09.1.125.154l.05.065c.135.105.274.274.404.35.114.064.413.183.488.338-.104.075-.518-.055-.648-.13-.015-.01-.03-.02-.05-.03.02.06.04.12.06.17.115.3.35.469.33.608-.235.01-.52-.234-.619-.459-.03-.074-.055-.154-.085-.239-.065-.204-.144-.438-.264-.558-.115-.115-.299-.15-.503-.165-.025.105-.05.2-.08.27-.04.1-.095.154-.224.18-.13.024-.34.024-.574.01-.234-.016-.493-.036-.797-.056a5.64 5.64 0 00-.918-.005c-.279.03-.493.105-.717.19-.225.084-.449.184-.688.2-.1.004-.2 0-.294-.026a2.474 2.474 0 01-.504-.284h-.005c-.438-.329-.822-.952-1.156-1.63.08.678.613 1.59.827 1.914a.941.941 0 00-.21.663 3.633 3.633 0 00-.328.03.402.402 0 00-.21.08c-.015.015-.015.035-.015.055.09.05.304.074.404.09.07.004.135.014.205.02.104.293.329.573.633.792-.005.02-.015.035-.02.055a4.76 4.76 0 01-.185.354c-.045.08-.07.164-.11.249-.01.025-.004.045.02.055.13-.085.245-.18.35-.29.07-.074.15-.164.214-.254.19.1.394.18.618.23.354.08.808.13 1.306.174l-.015.03c-.055.105-.11.2-.154.31a.529.529 0 00-.03.194c0 .024.015.034.035.04.08-.065.159-.13.239-.2.105-.1.204-.214.274-.339.668.065 1.396.14 2.089.3-.07.094-.14.189-.205.288a.263.263 0 00-.04.135c0 .015.01.035.02.05.075.01.2-.07.255-.115.074-.06.144-.12.214-.19.03-.03.06-.054.085-.084.762.22 1.336.563 1.724 1.032-.064.035-.124.07-.184.1-.135.064-.264.124-.389.209a.306.306 0 00-.114.125c-.005.014-.005.04.005.054.084.025.224 0 .309-.02a4.449 4.449 0 00.578-.179c.319.538.434 1.206.324 2.014-.09-.025-.185-.035-.27-.055-.094-.02-.184-.045-.284-.055a.409.409 0 00-.134.01c-.015.005-.025.015-.025.03a.91.91 0 00.19.145c.1.054.224.11.333.15.04.014.095.029.15.034-.005-.01-.01.005-.01.02zm-6.35 7.103a5.579 5.579 0 002.013-.015 6.2 6.2 0 00.524-.14c.678-.243 1.18-.532 1.704-1.026a.75.75 0 01.065-.06c.424-.439.723-.872.947-1.445.065-.18.115-.34.15-.529.01-.08.055-.792-.07-.633V28v.015c-.005.005-.01.01-.01.015-.09.165-.224.728-.349 1.017l-.005.005c-.26.513-.518.902-.907 1.326-.25.26-.479.453-.778.653a4.51 4.51 0 01-.832.424 5.65 5.65 0 01-1.107.289c-.394.06-.807.09-1.206.08h-.085c-.04.004-.07.01-.055.03h-.005.005c-.005.01 0 .01 0 .01zm-2.07-13.917c-.214.483-.353.802-.388 1.35-.005.28.035.494.124.753.105.284.225.484.424.708a2.127 2.127 0 00.783.553c.448.19.852.26 1.33.314.634.06 1.267.07 1.905.135.463.05.957.125 1.396.3.124.049.229.104.344.169.473.304.727.658.947 1.171.17.454.244.867.204 1.346a1.55 1.55 0 01-.379.877c-.144.155-.932.728-.623.638.33-.11.523-.244.788-.478.304-.3.428-.573.508-.997.005-.005.015-.12.02-.135a3.047 3.047 0 00-.2-1.38c-.239-.599-.538-.997-1.091-1.346-.608-.34-1.206-.424-1.89-.484a18.116 18.116 0 00-.523-.035c-.458-.02-.922-.025-1.38-.06-.454-.04-.838-.1-1.262-.264a2.116 2.116 0 01-.722-.473 1.975 1.975 0 01-.41-.629 1.938 1.938 0 01-.149-.688c-.005-.428.085-.732.22-1.131.01-.05.09-.294.025-.214zm3.585-2.578c-.304-.17-.658-.084-1.057.015.24.265.463.459.862.459.135-.085.24-.224.195-.474zm7.821-8.015c.274-.07.419-.274-.09-.344-.439-.06-.897-.03-1.316-.04-2.762-.165-5.967-.459-8.474-1.002-1.895-.454-4.352-1.6-6.167-1.675-2.851-.11-3.26 2.547-1.72 4.152.145.155.49.38.539.499.125.299-.095.613-.26.723-.248.17-.597.164-.901.164-.624 0-1.217.055-1.84.1.125 1.052.917 2.233 1.446 2.94.224.3.598.774 1.052 1.148.483.403 1.161.637 2.043.284-1.076-.768-1.814-1.526-2.657-2.707-.054-.08-.692-.907-.697-.922.159.01.717.703.822.827 1.017 1.221 1.76 1.94 3.036 2.747.578.1 1.475-.11 1.959-.434-.07-.035-.135-.065-.204-.1-.738-.368-1.406-.707-2.094-1.171-.115-.08-.23-.16-.34-.24-.602-.458-1.17-.951-1.759-1.43-.025-.02-.339-.24-.339-.26.05-.04.37.155.399.175.633.404 1.226.883 1.844 1.316.808.549 1.556.902 2.428 1.326.165.075.324.15.489.215.737.224 1.74.034 2.477-.42-1.077-.278-1.984-.652-3.32-1.23-.06-.025-.12-.055-.18-.08-.991-.489-1.874-1.097-2.856-1.585a12.799 12.799 0 00-.389-.135c.04-.06.384.035.424.05 1.037.374 2.044 1.057 3.1 1.51 1.466.588 2.423.957 3.65 1.232 1.022.024 1.844-.41 2.407-.878-.189-.02-.383-.05-.578-.08-1.396-.234-2.567-.498-3.913-.927a13.88 13.88 0 01-.862-.324c-.927-.398-2.04-.977-3.001-1.226-.05-.01-.544-.07-.553-.08.04-.075.503-.035.573-.025 1.131.17 2.741 1.002 3.923 1.386a29.36 29.36 0 003.883.857c.389.06.763.095 1.152.13l.06.005c.717-.045 1.535-.329 2.068-.807l-.105-.005c-2.666-.195-4.635-.569-7.188-1.331a7.594 7.594 0 01-.448-.15c-1.067-.379-2.358-.922-3.455-1.136a2.1 2.1 0 00-.319-.03c-.02 0-.194.025-.2.02-.004-.04.17-.08.19-.085.115-.02.224-.015.339-.005 1.142.1 2.822.782 3.963 1.121 2.373.653 4.272 1.012 6.73 1.212.289.02.573.04.862.055.528-.13 1.077-.464 1.366-.918-.469-.03-.937-.06-1.406-.094a51.295 51.295 0 01-4.446-.544 44.113 44.113 0 01-3.764-.842 38.548 38.548 0 01-1.874-.539c-.384-.124-.758-.254-1.147-.363a5.42 5.42 0 00-.628-.135c-.035-.005-.528-.01-.528-.01.025-.085.473-.09.533-.09.224.01.434.045.653.09.399.09.778.21 1.172.314 1.899.504 3.693.927 5.637 1.251a53.84 53.84 0 003.993.479c.698.06 1.401.11 2.104.154.573-.08 1.166-.339 1.426-.762-.903-.03-1.795-.07-2.697-.135a50.51 50.51 0 01-4.417-.503c-1.505-.255-2.861-.584-4.327-.987-.458-.125-.917-.265-1.37-.384-.524-.15-1.017-.324-1.55-.439a4.198 4.198 0 00-.788-.095c-.095.005-.683.13-.708.12.03-.125.598-.22.703-.234.289-.02.538.005.822.05.543.094 1.042.249 1.575.383 1.94.484 3.709.933 5.693 1.257 1.321.199 2.602.344 3.933.448a84.49 84.49 0 003.375.19c.324-.08.658-.36.802-.678-1.81-.035-3.589-.11-5.418-.284a45.647 45.647 0 01-4.99-.818c-1.286-.304-2.532-.748-3.809-1.097a10.588 10.588 0 00-1.525-.304c-.344-.03-.643-.03-.977.065-.16.05-.279.105-.409.214a.792.792 0 00-.259.39.904.904 0 00-.015.488c.01.05.155.488.15.498-.06-.015-.22-.423-.24-.473a.937.937 0 01-.02-.549.95.95 0 01.285-.473c.144-.13.279-.2.458-.264.36-.115.678-.13 1.052-.11 1.775.164 3.624.897 5.384 1.301a49.68 49.68 0 004.516.738c2.044.22 4.023.309 6.047.364z" fill="#fff"/><path d="M157.074 25.702v-.633h.803v-1.894h-.698c-.12.12-.269.269-.449.443-.184.18-.384.38-.608.594-.219.214-.459.453-.713.717-.259.27-.528.554-.807.858l-.04.045h-1.87v-.763h.828l2.084-2.034a2.907 2.907 0 01-.364-.08 4.864 4.864 0 01-.594-.189 3.76 3.76 0 01-.548-.264 3.63 3.63 0 01-.478-.344c-.15-.13-.285-.27-.399-.424a2.708 2.708 0 01-.499-1.092 3.188 3.188 0 01-.065-.668c0-.269.025-.528.08-.767.055-.24.135-.464.239-.673a2.915 2.915 0 01.858-1.017c.174-.13.369-.25.568-.344.205-.1.419-.18.643-.244.225-.065.459-.115.693-.145.239-.03.479-.05.728-.05h3.509v.763h-.777v7.582H160v.763h-2.926v-.14zm-90.994-3.12l-1.979-3.525-1.625 6.012h.852v.763h-2.512l.02-.763h.728l2.078-7.582h-1.161l.06-.763h1.879l2.019 3.574 1.82-3.559 1.839-.015v.763H68.99l2.542 7.582h.763v.763h-2.98v-.763h.891l-2.118-6.047-1.89 3.769-.119-.21zm7.487 2.487h.673v-7.582h-.802v-.763h5.977l.767 1.695-.583.364-.065-.115a2.32 2.32 0 00-.428-.538c-.16-.15-.344-.27-.544-.359a2.859 2.859 0 00-.653-.21 3.8 3.8 0 00-.728-.07h-1.62v2.23h3.873v1.32l-1.111-.015v-.488l-2.762.01v4.521h.663a10.234 10.234 0 001.097-.06 3.622 3.622 0 00.927-.224c.14-.055.274-.125.404-.2a2.806 2.806 0 00.718-.608c.11-.13.214-.274.314-.443l.055-.09.672.24-1.031 2.178-.09-.005a2.57 2.57 0 00-.184-.01c-.07-.005-.135-.005-.205-.01-.075 0-.14-.005-.21-.005h-5.253v-.763h.13zm16.27 1.71h-1.036v-.947h-6.35v.932h-1.217v-1.775h.768l2.781-7.487h-.862v-.763l2.293-.015 3.03 8.265h.728v1.785h-.134v.005zm-4.406-8.415L82.95 24.99h4.93l-2.448-6.625zm5.638 7.338v-.633h.793v-7.582h-.763v-.763H94v.763h-.817v3.315l3.12-3.315h-.673v-.763h2.498v.763h-.643l-2.627 2.802 2.93 4.775h.863v.763h-3.016v-.763h.738l-2.418-3.858-.772.822v3.031H94v.763h-2.926v-.12h-.005zm7.597-4.481a4.7 4.7 0 01.374-1.86 4.558 4.558 0 011.032-1.49 4.924 4.924 0 011.535-.992c.294-.12.598-.21.917-.27.319-.06.648-.09.987-.09a6.332 6.332 0 011.999.32c.319.105.619.234.898.394.284.154.543.334.782.538a4.623 4.623 0 011.157 1.495c.144.295.249.609.319.943.07.334.105.688.105 1.056 0 .354-.03.693-.095 1.017a4.676 4.676 0 01-.733 1.745c-.174.25-.369.484-.588.693-.22.21-.459.394-.718.558a4.57 4.57 0 01-.828.42 4.887 4.887 0 01-.917.263 5.26 5.26 0 01-.977.09 6.407 6.407 0 01-2.054-.319 5.197 5.197 0 01-.897-.394 4.376 4.376 0 01-1.406-1.236 5.003 5.003 0 01-.483-.828 4.269 4.269 0 01-.304-.962 5.238 5.238 0 01-.105-1.091zm5.115 4.057c.254 0 .503-.025.737-.07a3.417 3.417 0 001.287-.533c.189-.13.363-.274.523-.434a3.677 3.677 0 00.758-1.141c.089-.22.159-.449.204-.683a3.93 3.93 0 00.07-.738c0-.593-.09-1.151-.269-1.69a4.276 4.276 0 00-.778-1.406 3.92 3.92 0 00-.563-.538 3.6 3.6 0 00-1.441-.678 3.977 3.977 0 00-.862-.09c-.25 0-.489.025-.718.075-.229.05-.444.12-.653.22-.21.1-.399.214-.578.344-.18.13-.344.279-.494.448-.149.17-.284.35-.399.539a3.551 3.551 0 00-.299.613 3.784 3.784 0 00-.189.668 4.1 4.1 0 00-.06.708c0 .274.02.548.065.812a5.1 5.1 0 00.498 1.545c.12.235.264.454.429.659a3.73 3.73 0 001.171.986c.225.125.469.215.733.28.249.07.529.104.828.104zm11.171.424v-.633h.643l-2.363-6.5-3.066 7.263h-1.6v-1.217h1.236l3.026-7.103-1.206-.01v-.763l2.303-.015a5743.59 5743.59 0 003.086 8.45v.658h-2.059v-.13zm9.381 0v-.633h.643l-2.362-6.5-3.066 7.263h-1.6v-1.217h1.236l3.026-7.103-1.207-.01v-.763l2.303-.015a5743.59 5743.59 0 003.086 8.45v.658h-2.059v-.13zm3.216-.633h.673v-7.582h-.803v-.763h5.977l.768 1.695-.584.364-.065-.115a2.313 2.313 0 00-.428-.538c-.16-.15-.344-.27-.544-.359a2.842 2.842 0 00-.653-.21 3.791 3.791 0 00-.727-.07h-1.62v2.23h3.873v1.32l-1.112-.015v-.488l-2.761.01v4.521h.663a10.247 10.247 0 001.096-.06 3.63 3.63 0 00.927-.224 2.971 2.971 0 00.778-.464 2.8 2.8 0 00.344-.344c.11-.13.214-.274.314-.443l.055-.09.673.24-1.032 2.178-.09-.005c-.065-.005-.129-.01-.189-.01-.07-.005-.135-.005-.205-.01-.074 0-.139-.005-.209-.005h-5.264v-.763h.145zm13.892-6.201a2.536 2.536 0 00-.214-.603 1.342 1.342 0 00-.304-.404c-.11-.09-.249-.16-.409-.21a2.029 2.029 0 00-.583-.07h-2.243v7.488h.842v.763h-2.926v-.763h.843v-7.542h-.843v-.778h5.419l-.05-.299h.763l.488 2.512h-.763l-.02-.094zm3.919 6.201h.802v.763h-2.926v-.763h.803v-7.582h-.803v-.763h2.926v.763h-.802v5.025l3.888-4.566v-.459h-.803v-.763h2.926v.763h-.802v7.582h.802v.763h-2.926v-.763h.803v-5.842l-3.888 4.58v1.262zm12.517-7.582h-.778c-.16 0-.329.01-.499.02a6.833 6.833 0 00-.533.065c-.179.03-.349.07-.513.13a2.63 2.63 0 00-.469.209 2.004 2.004 0 00-.733.693 1.727 1.727 0 00-.214.503c-.05.195-.075.409-.075.648 0 .284.02.538.06.763.04.224.1.424.179.593.08.17.175.324.28.459.104.134.229.244.364.339.134.094.284.174.443.244.165.065.334.114.524.15a6.196 6.196 0 001.206.105h.753v-4.921h.005z" fill="#fff"/></svg>